<svg width="18" height="17" viewBox="0 0 18 17" fill="none" xmlns="http://www.w3.org/2000/svg">
<path d="M1.8125 9.81836C1.34375 9.81836 0.943359 9.42773 0.943359 8.94922C0.943359 8.4707 1.34375 8.07031 1.8125 8.07031H8.13086V1.76172C8.13086 1.29297 8.52148 0.892578 9 0.892578C9.47852 0.892578 9.87891 1.29297 9.87891 1.76172V8.07031H16.1875C16.6562 8.07031 17.0566 8.4707 17.0566 8.94922C17.0566 9.42773 16.6562 9.81836 16.1875 9.81836H9.87891V16.1367C9.87891 16.6055 9.47852 17.0059 9 17.0059C8.52148 17.0059 8.13086 16.6055 8.13086 16.1367V9.81836H1.8125Z" fill="#5457F7"/>
</svg>
